<?xml version="1.0" encoding="UTF-8" standalone="no"?>
<svg
   width="435.06076"
   height="505.08066"
   viewBox="0 0 435.06076 505.08066"
   version="1.1"
   id="svg230"
   sodipodi:docname="logobw.svg"
   inkscape:version="1.2.2 (732a01da63, 2022-12-09)"
   xmlns:inkscape="http://www.inkscape.org/namespaces/inkscape"
   xmlns:sodipodi="http://sodipodi.sourceforge.net/DTD/sodipodi-0.dtd"
   xmlns:xlink="http://www.w3.org/1999/xlink"
   xmlns="http://www.w3.org/2000/svg"
   xmlns:svg="http://www.w3.org/2000/svg">
  <sodipodi:namedview
     id="namedview232"
     pagecolor="#ffffff"
     bordercolor="#000000"
     borderopacity="0.25"
     inkscape:showpageshadow="2"
     inkscape:pageopacity="0.0"
     inkscape:pagecheckerboard="0"
     inkscape:deskcolor="#d1d1d1"
     showgrid="false"
     inkscape:zoom="1.1619506"
     inkscape:cx="183.74275"
     inkscape:cy="222.90104"
     inkscape:window-width="1366"
     inkscape:window-height="697"
     inkscape:window-x="-8"
     inkscape:window-y="-8"
     inkscape:window-maximized="1"
     inkscape:current-layer="g1926" />
  <defs
     id="defs214">
    <linearGradient
       id="linearGradient16556">
      <stop
         offset="0"
         style="stop-color:#ff0021;stop-opacity:1;"
         id="stop16548" />
      <stop
         offset=".39067525"
         style="stop-color:#0a96fa;stop-opacity:0.44999999;"
         id="stop16550" />
      <stop
         offset="1"
         style="stop-color:#ff40f5;stop-opacity:1;"
         id="stop16552" />
      <stop
         offset="1"
         style="stop-color:#1274f2;stop-opacity:0;"
         id="stop16554" />
    </linearGradient>
    <linearGradient
       id="linearGradient9823"
       inkscape:swatch="solid">
      <stop
         style="stop-color:#000000;stop-opacity:1;"
         offset="0"
         id="stop9821" />
    </linearGradient>
    <linearGradient
       id="linearGradient7213"
       inkscape:swatch="solid">
      <stop
         style="stop-color:#000000;stop-opacity:1;"
         offset="0"
         id="stop7211" />
    </linearGradient>
    <linearGradient
       id="linearGradient7123"
       inkscape:swatch="solid">
      <stop
         style="stop-color:#000000;stop-opacity:1;"
         offset="0"
         id="stop7121" />
    </linearGradient>
    <linearGradient
       id="linearGradient3263"
       inkscape:swatch="solid">
      <stop
         style="stop-color:#000000;stop-opacity:1;"
         offset="0"
         id="stop3261" />
    </linearGradient>
    <linearGradient
       id="c">
      <stop
         offset="0"
         style="stop-color:#e4707c;stop-opacity:0.11875;"
         id="stop182" />
      <stop
         offset=".5"
         style="stop-color:#43ec63;stop-opacity:0.80000001;"
         id="stop184" />
      <stop
         offset=".61012864"
         style="stop-color:#a191b1;stop-opacity:0.89803922;"
         id="stop186" />
      <stop
         offset=".76969457"
         style="stop-color:#d064d8;stop-opacity:0.94901961;"
         id="stop188" />
      <stop
         offset="1"
         style="stop-color:#af3728;stop-opacity:1;"
         id="stop190" />
    </linearGradient>
    <linearGradient
       id="a">
      <stop
         offset="0"
         style="stop-color:#ff0021;stop-opacity:1;"
         id="stop193" />
      <stop
         offset=".39067525"
         style="stop-color:#0a96fa;stop-opacity:0.44999999;"
         id="stop195" />
      <stop
         offset="1"
         style="stop-color:#ff40f5;stop-opacity:1;"
         id="stop197" />
      <stop
         offset="1"
         style="stop-color:#1274f2;stop-opacity:0;"
         id="stop199" />
    </linearGradient>
    <linearGradient
       id="b">
      <stop
         offset="0"
         style="stop-color:#00bcff;stop-opacity:1;"
         id="stop202" />
      <stop
         offset=".5"
         style="stop-color:#ff0ce0;stop-opacity:0.47663552;"
         id="stop204" />
      <stop
         offset="1"
         style="stop-color:#1274f2;stop-opacity:0;"
         id="stop206" />
    </linearGradient>
    <linearGradient
       xlink:href="#a"
       id="h"
       x1="173.11189"
       x2="976.64374"
       y1="750.94745"
       y2="750.94745"
       gradientTransform="translate(59.883003,-61.520689)"
       gradientUnits="userSpaceOnUse" />
    <linearGradient
       xlink:href="#b"
       id="g"
       x1="173.11189"
       x2="976.64374"
       y1="750.94745"
       y2="750.94745"
       gradientTransform="translate(367.883,-67.520689)"
       gradientUnits="userSpaceOnUse" />
    <linearGradient
       xlink:href="#c"
       id="d"
       x1="264.27261"
       x2="1001.7961"
       y1="692.16895"
       y2="692.16895"
       gradientUnits="userSpaceOnUse" />
    <linearGradient
       xlink:href="#c"
       id="f"
       x1="264.27261"
       x2="1001.7961"
       y1="692.16895"
       y2="692.16895"
       gradientUnits="userSpaceOnUse" />
    <linearGradient
       xlink:href="#c"
       id="e"
       x1="264.27261"
       x2="1001.7961"
       y1="692.16895"
       y2="692.16895"
       gradientUnits="userSpaceOnUse" />
    <linearGradient
       inkscape:collect="always"
       xlink:href="#b"
       id="linearGradient6260"
       x1="117.38509"
       y1="267.26495"
       x2="547.979"
       y2="267.26495"
       gradientUnits="userSpaceOnUse" />
    <inkscape:path-effect
       effect="fill_between_many"
       method="originald"
       linkedpaths="#path7119,0,1|#path7119-8,0,1"
       id="path-effect7760"
       is_visible="true"
       lpeversion="0"
       join="true"
       close="true"
       autoreverse="true" />
    <inkscape:path-effect
       effect="fill_between_many"
       method="originald"
       linkedpaths="#path7119,0,1|#path7119-8,0,1"
       id="path-effect8260"
       is_visible="true"
       lpeversion="0"
       join="true"
       close="true"
       autoreverse="true" />
    <inkscape:path-effect
       effect="fill_between_many"
       method="originald"
       linkedpaths="#path7119-8,0,1"
       id="path-effect9827"
       is_visible="true"
       lpeversion="0"
       join="true"
       close="true"
       autoreverse="true" />
    <linearGradient
       inkscape:collect="always"
       xlink:href="#linearGradient16556"
       id="linearGradient16401"
       x1="117.52356"
       y1="187.31792"
       x2="548.59729"
       y2="187.31792"
       gradientUnits="userSpaceOnUse"
       gradientTransform="matrix(0.96698366,0,0,0.96474298,10.566147,-143.22939)" />
  </defs>
  <g
     style="display:none;stroke:#191a24;stroke-width:3;stroke-dasharray:none;stroke-opacity:0.0448276"
     id="g228"
     transform="translate(-104.94798,78.410348)">
    <g
       style="display:none;fill:url(#d);fill-opacity:1;stroke:#191a24;stroke-width:3;stroke-dasharray:none;stroke-opacity:0.0448276"
       transform="translate(-257.88861,-428.25836)"
       id="g220">
      <path
         d="m 863.6898,436.46831 c -7.12813,18.94262 -90.98145,162.94563 -77.05591,173.55749 42.50564,-47.20244 167.55993,-169.55899 212.36017,-161.70534 -37.12082,44.82043 -89.84002,52.57957 -218.42149,494.63064 2.52917,-35.6684 1.39251,-65.22709 -11.96825,-74.41228 -3.27123,-2.24889 184.65163,-391.44127 192.44583,-383.95307 -93.67748,23.20847 -168.87058,147.45589 -188.4508,162.88549 -12.11482,-21.67544 72.12276,-180.3005 72.83813,-185.18655 2.61934,-6.45661 -152.75953,96.87504 -233.42082,272.14016 0,0 16.99069,-29.46857 7.03722,-54.05344 292.13601,-367.95757 -43.92959,-97.99759 -43.92959,-97.99759 -15.99846,3.96849 114.43886,-117.05981 165.30745,-99.46709 0,0 14.4953,10.03521 17.84037,28.9906 0,0 79.36223,-75.63169 105.41769,-75.42902 z"
         style="display:none;fill:url(#e);fill-opacity:1;fill-rule:evenodd;stroke:#191a24;stroke-width:3;stroke-dasharray:none;stroke-dashoffset:0;stroke-opacity:0.0448276"
         id="path216" />
      <path
         d="m 469.42277,503.27949 c -7.12813,18.94262 -90.98145,162.94563 -77.05591,173.55749 42.50564,-47.20244 167.55993,-169.55899 212.36017,-161.70534 -37.12082,44.82043 -89.84002,52.57957 -218.42149,494.63066 2.52917,-35.66841 1.39251,-65.22711 -11.96825,-74.4123 -3.27123,-2.24889 184.65163,-391.44127 192.44583,-383.95307 -93.67748,23.20847 -168.87058,147.45589 -188.4508,162.88549 -12.11482,-21.67544 72.12276,-180.3005 72.83813,-185.18655 2.61934,-6.45661 -152.75953,96.87504 -233.42082,272.14016 0,0 16.99069,-29.46857 7.03722,-54.05344 C 516.92286,379.22502 180.85726,649.185 180.85726,649.185 c -15.99846,3.96849 114.43886,-117.05981 165.30745,-99.46709 0,0 14.4953,10.03521 17.84037,28.9906 0,0 79.36223,-75.63169 105.41769,-75.42902 z"
         style="display:none;fill:url(#f);fill-opacity:1;fill-rule:evenodd;stroke:#191a24;stroke-width:3;stroke-dasharray:none;stroke-opacity:0.0448276"
         transform="translate(86.26703,-60.81118)"
         id="path218" />
    </g>
    <g
       style="display:none;stroke:#191a24;stroke-width:3;stroke-dasharray:none;stroke-opacity:0.0448276"
       id="g226">
      <path
         d="m 837.3058,435.7588 c -7.1281,18.94262 -90.9815,162.94563 -77.0559,173.55749 42.5056,-47.20244 167.5599,-169.55899 212.3602,-161.70534 -37.1209,44.82043 -89.8401,52.57957 -218.4215,494.63064 2.5291,-35.6684 1.3925,-65.22709 -11.9683,-74.41228 -3.2712,-2.24889 184.6516,-391.44127 192.4458,-383.95307 -93.6774,23.20847 -168.8705,147.45589 -188.4508,162.88549 -12.1148,-21.67544 72.1228,-180.3005 72.8382,-185.18655 2.6193,-6.45661 -152.7596,96.87504 -233.4208,272.14016 0,0 16.9906,-29.46857 7.0372,-54.05344 292.136,-367.95757 -43.9296,-97.99759 -43.9296,-97.99759 -15.9985,3.96849 114.4388,-117.05981 165.3074,-99.46709 0,0 14.4953,10.03521 17.8404,28.9906 0,0 79.3622,-75.63169 105.4177,-75.42902 z"
         style="display:none;fill:url(#g);fill-opacity:1;fill-rule:evenodd;stroke:#191a24;stroke-width:3;stroke-dasharray:none;stroke-opacity:0.0448276"
         transform="translate(-237.88861,-434.25836)"
         id="path222" />
      <path
         d="m 529.3058,441.7588 c -7.1282,18.94262 -90.9815,162.94563 -77.0559,173.55749 42.5056,-47.20244 167.5599,-169.55899 212.3601,-161.70534 -37.1208,44.82043 -89.84,52.57957 -218.4215,494.63066 2.5292,-35.66841 1.3925,-65.22711 -11.9682,-74.4123 -3.2712,-2.24889 184.6516,-391.44127 192.4458,-383.95307 -93.6775,23.20847 -168.8706,147.45589 -188.4508,162.88549 -12.1148,-21.67544 72.1228,-180.3005 72.8381,-185.18655 2.6194,-6.45661 -152.7595,96.87504 -233.4208,272.14016 0,0 16.9907,-29.46857 7.0372,-54.05344 292.1361,-367.95757 -43.9295,-97.99759 -43.9295,-97.99759 -15.9985,3.96849 114.4388,-117.05981 165.3074,-99.46709 0,0 14.4953,10.03521 17.8404,28.9906 0,0 79.3622,-75.63169 105.4177,-75.42902 z"
         style="display:none;fill:url(#h);fill-opacity:1;fill-rule:evenodd;stroke:#191a24;stroke-width:3;stroke-dasharray:none;stroke-opacity:0.0448276"
         transform="translate(-237.88861,-434.25836)"
         id="path224" />
    </g>
  </g>
  <g
     id="g1926"
     inkscape:label="logo2"
     transform="translate(-115.54542,55.242139)"
     style="opacity:1;mix-blend-mode:normal;fill:url(#linearGradient6260);fill-opacity:1;stroke:#000000;stroke-width:0.5;stroke-linecap:butt;stroke-linejoin:bevel;stroke-dasharray:none;stroke-opacity:1;paint-order:normal">
    <path
       id="path7119-8"
       style="display:inline;opacity:1;mix-blend-mode:normal;fill:url(#linearGradient16401);fill-opacity:1;fill-rule:evenodd;stroke:#000000;stroke-width:1.93172;stroke-linecap:butt;stroke-linejoin:bevel;stroke-dasharray:none;stroke-opacity:1;paint-order:normal"
       inkscape:label="inner"
       d="m 330.12592,-199.38611 c -33.65591,0.55002 -67.22852,8.47225 -97.3702,23.47382 -27.71814,13.74956 -52.5196,33.51655 -71.52331,57.94146 -16.12515,20.676755 -28.03213,44.678284 -34.28021,70.146091 -3.73298,15.191189 -5.56588,30.873057 -5.16232,46.516635 0.29874,9.4806162 1.36664,18.939178 3.16742,28.252208 -2.04921,1.662512 -4.20556,3.458884 -5.22965,5.958041 -1.09987,3.028984 0.57542,6.818803 3.71461,7.795441 1.4884,0.571206 3.1656,0.446522 4.64451,-0.09069 4.85447,18.651858 12.73853,36.4945 23.0773,52.763144 -0.77809,4.335632 -2.92812,8.28156 -5.45396,11.84037 -0.4769,0.75446 -0.57224,1.68101 -0.64626,2.52194 -0.86067,1.26397 -1.69867,2.44144 -2.61828,3.71484 -5.9383,8.11461 -12.10271,16.0623 -18.03927,24.17876 -1.37662,2.00719 -2.93719,3.91005 -4.0684,6.07122 -0.6789,1.41501 -0.66289,3.5514 0.86785,4.39935 0.85455,0.44292 1.85813,0.28453 2.77141,0.52483 0.60248,0.12256 1.20143,0.2148 1.74916,-0.13371 0.60749,-0.21747 1.23591,-0.4066 1.55067,-1.02063 10.09545,-12.61388 20.37191,-25.08295 30.44929,-37.71105 0.56264,-0.73067 1.1422,-1.45 1.67037,-2.20603 20.00507,26.48621 46.78845,47.65285 76.77598,61.84902 4.04744,1.91873 8.15285,3.71639 12.30928,5.38716 -0.0772,2.41231 1.40409,4.7488 3.60075,5.74762 2.5139,1.60772 3.48639,4.64673 4.11622,7.40455 1.07343,5.17885 1.03095,10.51583 0.72032,15.77167 -0.12208,1.2329 -0.65263,2.42882 -0.94757,3.57769 -2.76581,9.00593 -5.75651,17.94034 -8.64802,26.90658 -3.50535,10.80913 -7.10288,21.59011 -10.43376,32.45457 -0.10661,0.6468 -0.6268,1.37943 -0.0793,1.94589 0.39043,0.58318 0.65648,1.32223 1.1214,1.81206 1.19679,0.36432 2.39358,0.72865 3.59035,1.09297 0.77923,-0.41505 1.69327,-0.7021 2.38829,-1.1971 8.45555,-20.46179 16.97411,-40.89393 25.36918,-61.38043 3.20935,-7.96476 6.48016,-15.92934 9.79059,-23.87249 26.06651,6.38061 53.27095,8.19871 79.93941,5.09132 21.21849,-2.4304 42.10508,-7.81607 61.80113,-16.06714 -8.83486,16.16591 -17.64895,32.34839 -25.96519,48.78761 -1.05479,2.17351 -2.18198,4.34887 -2.83285,6.68102 -0.41575,2.05336 0.2219,4.43471 2.05264,5.61905 1.17375,0.94025 2.89964,0.81192 4.17615,0.16031 1.66779,-1.04203 2.76535,-2.74335 4.07379,-4.16989 2.13136,-2.54577 4.21194,-5.13323 6.26463,-7.74243 -2.90569,5.75342 -5.95212,11.44922 -8.44592,17.39731 -0.67219,1.7253 -1.23103,3.58885 -0.84883,5.45084 0.85243,5.76987 0.74043,11.62694 0.49179,17.43741 -3.10586,7.90121 -6.01063,15.88004 -8.85016,23.87897 -0.85242,1.74558 -1.7677,3.81852 -0.89899,5.73789 0.35889,0.66012 0.88572,1.35399 1.56709,1.65684 0.818,0.0571 1.68076,0.56844 2.44512,0.0814 0.75419,-0.37509 1.67918,-0.49812 2.31767,-1.04399 0.51827,-0.5298 1.08939,-1.02803 1.20069,-1.8008 0.51685,-1.81559 1.36968,-3.49662 2.25843,-5.15345 2.33887,-4.55188 4.92809,-8.99027 6.90847,-13.71501 0.56256,-1.34827 0.28562,-2.80857 0.46604,-4.21544 0.12431,-1.34213 0.10456,-2.71718 0.34534,-4.03621 12.59559,-32.01401 26.65532,-63.50816 39.80153,-95.32948 1.54975,-3.74319 3.05474,-7.50418 4.58035,-11.25721 26.72641,-16.49981 49.81731,-39.033 66.23838,-65.821107 12.09174,-19.655954 20.54358,-41.555378 24.55674,-64.277487 1.34746,-7.540499 2.17432,-15.170795 2.5678,-22.817724 0.22051,-1.1578076 0.0149,-2.3349773 0.23871,-3.49464656 0.32332,-3.44383324 0.46573,-6.90490704 0.27487,-10.36129044 -0.87697,-30.535988 -9.83748,-60.733356 -25.37403,-87.029704 -16.17685,-27.515541 -39.31774,-50.777661 -66.3156,-67.790061 -28.73185,-18.14253 -61.73539,-29.36493 -95.51881,-32.99297 -9.44735,-1.0252 -18.95942,-1.44437 -28.46083,-1.29966 z m 3.78672,15.84101 c 7.82843,0.0577 15.6611,0.4253 23.47878,1.31155 8.83852,0.97438 17.72529,2.51647 26.42148,4.61215 3.67046,0.87499 7.55111,1.93666 11.20364,3.02803 5.50063,1.64349 10.92964,3.52127 16.31351,5.63436 2.49739,0.98336 4.99828,2.02248 7.49397,3.11468 17.84878,7.85142 34.75716,18.3519 49.56568,31.14747 11.36227,9.78907 21.54932,20.94515 30.19724,33.19071 7.88897,11.165461 14.5595,23.423002 19.60334,36.203946 0.89412,2.2453 1.74172,4.564474 2.5013,6.734654 2.45285,7.04186 4.39204,14.255786 5.89068,21.557858 0.41253,2.084568 0.82824,4.358372 1.17062,6.528233 1.095,6.868111 1.76873,13.804555 1.98906,20.7559051 0.036,1.8925463 0.13956,3.9488855 0.0302,5.9033975 -8.84731,2.0385401 -17.03443,6.1432899 -24.9498,10.471243 -13.8537,7.7025464 -26.79511,16.9102364 -39.45694,26.4058344 -15.86096,11.987366 -31.11694,24.757341 -45.93515,38.001679 4.48352,-9.09166 9.47941,-17.921431 14.56004,-26.69136 8.10592,-13.952142 16.66197,-27.638149 24.81164,-41.5640696 1.08588,-1.98547006 2.27478,-3.9333922 3.15437,-6.018443 0.56816,-1.830687 -0.46061,-3.6169658 -1.52178,-5.0404351 -0.54274,-1.0210065 -1.39418,-1.8648763 -2.49112,-2.2667693 -1.34598,-0.840522 -2.95192,-0.434327 -4.41564,-0.254373 -5.30721,0.8798348 -10.17577,3.3265099 -14.90281,5.7789251 -9.43417,5.04114894 -18.21443,11.188752 -26.88107,17.4256419 -6.08209,4.429424 -12.05437,9.007969 -17.93303,13.702504 -2.6347,-4.591944 -6.39283,-8.58381 -10.92767,-11.341383 -3.75591,-1.562546 -7.92307,-1.679203 -11.93204,-1.50225 -0.90541,0.04929 -1.80844,0.136241 -2.70869,0.24356 8.03288,-9.9364573 17.1613,-19.0191266 27.37922,-26.719243 5.06606,-3.885251 10.28051,-7.588475 15.11517,-11.764963 0.71695,-1.01187 1.09514,-2.239429 1.20504,-3.469283 -0.0848,-1.217361 -0.61356,-2.359839 -0.94622,-3.527448 -0.39558,-1.348672 -1.65652,-2.157908 -2.76127,-2.905073 -1.55321,-0.530599 -3.24065,-0.381912 -4.86135,-0.43149 -7.28345,0.161526 -14.32654,2.345502 -21.13389,4.763418 -12.03794,4.411982 -23.42077,10.389838 -34.59314,16.62502 -17.82777,10.0690903 -34.94778,21.3355136 -51.71127,33.069374 -6.19337,4.351868 -12.331,8.783666 -18.39234,13.317263 1.99101,-3.353524 4.07419,-6.594558 6.24383,-9.877338 11.01519,-16.711055 23.22588,-32.723329 34.82989,-49.080951 1.30176,-1.905831 2.67515,-3.788411 3.7411,-5.833743 0.30922,-1.162756 0.35136,-2.44326 -0.004,-3.602736 -0.60945,-1.150369 -1.26546,-2.311554 -2.07362,-3.33449 -1.15036,-0.917731 -2.59161,-1.839214 -4.14086,-1.551789 -6.24119,0.426455 -12.08287,2.904484 -17.75745,5.349973 -10.61149,4.750172 -20.66022,10.637188 -30.59227,16.647576 -6.05279,3.696335 -12.02233,7.5276 -17.92634,11.455821 -2.94834,-4.501588 -7.15549,-8.147206 -11.93243,-10.60841 -3.90498,-1.34629 -8.11044,-1.413465 -12.19756,-1.290238 -9.44335,0.4408 -18.60914,3.103559 -27.48869,6.180732 -13.91876,4.9398895 -27.19903,11.5004697 -40.1129,18.6201381 -6.29094,3.4890513 -12.46944,7.1799059 -18.52344,11.0637199 -0.26112,-1.844724 -0.48433,-3.657678 -0.68756,-5.558945 -0.26273,-2.4453246 -0.456,-4.7741268 -0.61067,-7.2479787 -0.0819,-1.3952405 -0.15099,-2.6758597 -0.19313,-4.02207166 -0.31218,-7.94947254 0.123,-15.91283764 1.04376,-23.81080264 0.15187,-1.124948 0.31183,-2.494247 0.49768,-3.710363 3.55426,-25.10645 13.0633,-49.288345 27.20942,-70.32817 14.32965,-21.382277 33.33678,-39.537847 55.06114,-53.342937 11.74492,-7.4888 24.29483,-13.70302 37.32847,-18.62446 1.21589,-0.43935 2.63979,-0.98378 3.94836,-1.43341 1.63299,-0.58358 3.21516,-1.11586 4.90637,-1.66837 5.39635,-1.76232 10.99853,-3.32787 16.43794,-4.62558 6.99345,-1.67121 14.16612,-2.97711 21.23587,-3.92116 4.85065,-0.64693 9.73521,-1.1195 14.56881,-1.42181 4.5483,-0.29194 9.00308,-0.41837 13.55871,-0.45303 z m 47.95823,171.62627 c 0.45135,0.326604 0.90332,1.004645 0.67155,1.541004 -0.37222,0.4606163 -1.16994,0.5438733 -1.4111,-0.09436 -0.27128,-0.489145 -0.22291,-1.127341 0.0785,-1.589821 0.22034,0.04775 0.44068,0.09551 0.66101,0.143207 z m -95.0269,6.4762137 C 277.08754,9.1728834 267.47571,23.92251 259.15389,39.410407 c -3.3553,6.358853 -6.59599,12.880322 -8.31496,19.895924 -0.74541,3.350754 -0.86134,7.135441 1.00853,10.154295 0.8485,1.283504 2.28642,2.023665 3.78062,2.256091 1.6651,0.514969 3.54903,0.40057 5.01106,-0.607268 5.06619,-3.432594 9.43951,-7.749887 13.98682,-11.815197 10.50912,-9.60367 21.08127,-19.166761 32.35831,-27.875477 6.32542,-4.918018 12.7704,-9.542031 19.49464,-13.864398 5.18445,-3.333042 10.59479,-6.508783 16.11015,-9.3869586 6.87037,-3.5764277 14.10771,-6.802046 21.48802,-9.3571099 0.89863,-0.4591212 0.005,0.38075512 -0.20623,0.72526484 -4.66637,6.22095236 -9.25756,12.49922966 -13.82544,18.79179466 -14.37894,5.515926 -27.79091,13.263614 -40.65487,21.665261 -10.94132,7.209814 -21.5577,14.962527 -31.3448,23.68306 -2.10467,1.972428 -4.2447,3.986126 -5.79718,6.43501 -1.34649,2.335006 -1.26593,5.543857 0.64968,7.552124 2.28229,2.543863 6.5458,2.57296 9.0885,0.401333 14.78602,-10.213329 29.87556,-20.092577 45.28544,-29.281435 0.92293,-0.547067 1.84584,-1.094134 2.76875,-1.641202 -20.58609,29.794582 -40.74784,59.880151 -60.54706,90.200791 -4.67613,7.19325 -9.31435,14.41139 -13.85213,21.69246 -7.09418,-2.81223 -14.15574,-6.09816 -20.92764,-9.73327 -13.41339,-7.20072 -26.09103,-15.98711 -37.49574,-26.13935 -4.30406,-3.83601 -8.55187,-7.97899 -12.52253,-12.24386 -3.09956,-3.30983 -6.19585,-6.92585 -9.0848,-10.54549 -2.20563,-2.76162 -4.33184,-5.58688 -6.36135,-8.480018 17.03306,-22.078905 37.17278,-41.639802 58.85781,-59.139072 15.31574,-12.344746 31.44823,-23.6797996 48.24508,-33.928477 3.37326,-2.0528862 6.89756,-4.1370595 10.38457,-6.1073339 0.71803,-0.4037163 1.43606,-0.8074328 2.1541,-1.2111384 -0.68242,1.016868 -1.36485,2.033745 -2.04727,3.050623 z m -58.68006,0.5577376 c -1.87201,5.02868384 -5.19568,9.3316596 -8.40239,13.5747441 -6.44919,8.3277376 -13.66606,16.0565156 -20.9252,23.6309726 -12.57059,13.048719 -25.71762,25.55611 -38.96381,37.876514 -0.76677,0.711007 -1.53353,1.422002 -2.30029,2.133008 C 150.98004,59.735033 145.9326,46.324825 142.7124,32.48007 161.1631,22.275868 179.84124,12.419407 199.18572,3.9941139 c 5.94341,-2.5667665 11.97561,-4.95237323 18.16573,-6.8628344 0.76631,-0.2331978 1.92019,-0.5621749 2.71776,-0.772547 2.64959,-0.7147492 5.36288,-1.3006081 8.11926,-1.3189772 z M 516.42892,20.266269 c 0.70065,-0.01679 0.78165,0.655678 0.88701,1.192915 0.182,0.528187 0.41754,1.213685 -0.40312,1.210472 -0.99823,-0.05837 -1.337,-1.493778 -0.81838,-2.232936 0.0673,-0.214124 0.13604,-0.185925 0.33449,-0.170451 z m 10.65949,1.989783 c -0.40211,2.391607 -0.83615,4.691825 -1.35283,7.119919 -0.6479,3.063868 -1.44252,6.316973 -2.25936,9.295211 -4.1019,14.986115 -10.31561,29.386419 -18.32814,42.703644 -0.95341,1.587639 -2.03649,3.32652 -3.08474,4.945089 -1.35093,2.084742 -2.65244,4.008092 -4.10204,6.056531 -9.80763,13.875094 -21.62,26.316394 -34.84301,36.994354 7.78245,-18.25336 16.04486,-36.266282 25.42864,-53.808927 3.10688,-5.645569 6.44905,-11.158169 9.67494,-16.736197 5.06027,-8.555987 10.72098,-16.7665 16.99972,-24.478984 3.76203,-4.569022 7.76555,-8.941536 12.02168,-13.057264 -0.0517,0.322205 -0.10324,0.644419 -0.15486,0.966624 z m -99.51622,6.549707 c -9.07274,16.37575 -17.9912,32.866797 -25.64041,49.962399 -3.13071,7.110754 -6.12839,14.353407 -7.75513,21.974962 -0.7095,3.55068 -0.97228,7.46021 0.69998,10.79077 0.8913,1.59266 2.69109,2.46563 4.46278,2.64175 1.46355,0.49139 3.08256,0.20249 4.41325,-0.52337 4.6791,-3.60793 8.47084,-8.17743 12.4814,-12.47529 11.48404,-12.63175 23.01305,-25.278373 35.77774,-36.651159 1.76119,-1.580432 3.54648,-3.133861 5.34236,-4.674942 1.10853,-0.930987 2.37834,-2.012704 3.57029,-2.977805 6.00638,-4.927463 12.263,-9.559232 18.81387,-13.743149 6.43353,-4.097012 13.29096,-7.858517 20.37653,-10.866546 0.3668,-0.09911 1.41416,-0.76618 0.7676,-0.01717 -4.90748,7.726607 -9.58487,15.595534 -14.37929,23.391766 -3.72186,6.184552 -7.09483,12.548046 -10.75536,18.730003 -14.3897,24.800908 -28.46434,49.782532 -42.36237,74.861062 -11.87509,6.44721 -24.40165,11.68983 -37.31198,15.68838 -3.63489,1.12563 -7.44596,2.18811 -11.19329,3.12666 -5.59322,1.39423 -11.37931,2.59126 -17.12281,3.52159 -2.30769,0.38499 -4.85138,0.7413 -7.15067,1.05086 -2.95135,0.37465 -5.9096,0.69191 -8.87282,0.9572 -1.13068,0.082 -2.49994,0.20948 -3.72765,0.28423 -4.04915,0.27829 -7.96895,0.44019 -12.04624,0.4882 -17.1092,0.19275 -34.23872,-1.71983 -50.89322,-5.62817 5.13107,-12.08186 10.4041,-24.15541 15.83247,-36.13077 1.03504,5.23199 -0.33629,10.61275 -2.40554,15.42196 -0.84528,1.97163 -1.94745,3.81863 -2.91854,5.72514 -0.8842,2.18357 0.4706,4.8424 2.68267,5.5651 0.85492,0.41285 1.62219,1.08578 2.53628,1.32307 0.7156,0.13974 1.42554,0.19669 2.1113,-0.10054 0.83265,-0.26044 1.77024,-0.311 2.39191,-0.99342 0.84547,-0.55597 1.09614,-1.62469 1.63978,-2.43673 4.13421,-7.74685 8.63801,-15.29387 13.42835,-22.65423 2.14423,-3.29388 4.46085,-6.70604 6.71912,-9.91577 5.6672,-8.04708 11.80001,-16.00124 18.12218,-23.55304 15.5618,-18.582379 32.82566,-35.730531 51.35211,-51.366391 10.6269,-8.951792 21.72098,-17.509689 33.26272,-25.322621 0.80801,-0.683897 0.0332,0.349767 -0.13103,0.721829 -0.70612,1.268059 -1.41223,2.536118 -2.11834,3.804175 z m -54.43815,-0.906337 c -0.20651,1.202513 -0.547,2.222594 -0.97343,3.396908 -2.02788,5.312483 -5.11912,10.12982 -8.17427,14.898738 -6.57118,9.985109 -14.02283,19.492786 -21.56036,28.823162 -8.76513,10.814384 -17.88866,21.398193 -27.08056,31.81113 -1.73178,1.94718 -3.4595,3.89825 -5.19375,5.8431 9.53232,-20.053111 19.64578,-39.909461 30.86037,-59.045302 3.72921,-6.339509 7.60759,-12.593938 11.66047,-18.731459 5.5758,-2.607276 11.22449,-5.223591 17.25504,-6.59669 1.05649,-0.215775 2.12699,-0.374234 3.20649,-0.399587 z" />
  </g>
</svg>
