<?xml version="1.0" encoding="UTF-8" standalone="no"?>
<!-- Created with Inkscape (http://www.inkscape.org/) -->

<svg
   width="289.6553"
   height="274.32312"
   viewBox="0 0 579.31061 548.64624"
   version="1.1"
   id="svg4049"
   xml:space="preserve"
   sodipodi:docname="roundlogo.svg"
   inkscape:version="1.2.2 (732a01da63, 2022-12-09)"
   xmlns:inkscape="http://www.inkscape.org/namespaces/inkscape"
   xmlns:sodipodi="http://sodipodi.sourceforge.net/DTD/sodipodi-0.dtd"
   xmlns:xlink="http://www.w3.org/1999/xlink"
   xmlns="http://www.w3.org/2000/svg"
   xmlns:svg="http://www.w3.org/2000/svg"><sodipodi:namedview
     id="namedview4051"
     pagecolor="#ffffff"
     bordercolor="#000000"
     borderopacity="0.25"
     inkscape:showpageshadow="2"
     inkscape:pageopacity="0.0"
     inkscape:pagecheckerboard="0"
     inkscape:deskcolor="#d1d1d1"
     inkscape:document-units="px"
     showgrid="false"
     inkscape:zoom="1"
     inkscape:cx="-76.5"
     inkscape:cy="154"
     inkscape:window-width="1366"
     inkscape:window-height="697"
     inkscape:window-x="-8"
     inkscape:window-y="-8"
     inkscape:window-maximized="1"
     inkscape:current-layer="layer3" /><defs
     id="defs4046"><linearGradient
       inkscape:collect="always"
       id="linearGradient7123"><stop
         style="stop-color:#51c4f4;stop-opacity:1;"
         offset="0"
         id="stop7119" /><stop
         style="stop-color:#74ff9a;stop-opacity:1;"
         offset="0.5"
         id="stop11589" /><stop
         style="stop-color:#ffa3a3;stop-opacity:1;"
         offset="1"
         id="stop7121" /></linearGradient><linearGradient
       inkscape:collect="always"
       xlink:href="#linearGradient7123"
       id="linearGradient7125"
       x1="197.46631"
       y1="473.14944"
       x2="773.96155"
       y2="473.14944"
       gradientUnits="userSpaceOnUse"
       gradientTransform="translate(-16,-18)" /></defs><g
     inkscape:groupmode="layer"
     id="layer2"
     inkscape:label="new sig"
     style="display:none;fill:none;fill-opacity:1;stroke:#000000;stroke-width:10;stroke-dasharray:none;stroke-opacity:1"
     transform="translate(-178.05862,-178.82632)"><ellipse
       style="fill:none;fill-opacity:1;fill-rule:evenodd;stroke:#000000;stroke-width:10;stroke-linejoin:round;stroke-dasharray:none"
       id="path3011"
       ry="271.74506"
       rx="292.47141"
       cy="480.54355"
       cx="504.34045" /><ellipse
       style="fill:none;fill-opacity:1;fill-rule:evenodd;stroke:#000000;stroke-width:10;stroke-linejoin:round;stroke-dasharray:none"
       id="path3013"
       ry="300.91544"
       rx="326.24762"
       cy="479.0083"
       cx="504.34045" /><path
       style="display:inline;opacity:0.902655;fill:none;fill-opacity:1;fill-rule:evenodd;stroke:#000000;stroke-width:10;stroke-linecap:butt;stroke-linejoin:round;stroke-dasharray:none;stroke-opacity:1"
       d="m 260.18885,403.0223 c -3.33876,-4.37995 -2.4928,-12.06575 0.76765,-16.5043 14.48562,-19.71977 21.3268,-24.49232 34.73578,-33.77622 10.68014,-7.39456 26.82202,-15.96496 36.27105,-16.88812 6.17669,-0.60346 11.64725,0.4968 15.92856,4.98968 3.96386,4.15975 2.24215,19.64829 4.22203,17.84765 12.51164,-11.37897 22.38681,-19.38963 41.83646,-31.4733 9.58112,-5.95255 13.25501,-5.18452 18.61531,-2.68674 5.34586,2.49106 7.44926,9.25264 5.7573,14.00947 -11.21085,31.51849 -37.21838,66.04006 -32.07915,61.98704 12.26804,-9.6751 122.98425,-99.20438 133.61669,-107.97168 5.50306,-4.53772 14.17591,-5.26363 18.98218,1.46143 3.83799,5.3702 4.44743,18.00051 -1.54328,22.32414 -32.96966,19.6671 -215.66445,279.9062 -178.23441,301.57074 7.29729,4.22368 34.67617,-8.97261 51.93427,-26.70186 15.31137,-15.72939 33.95314,2.31404 14.10353,17.49205 -50.15046,38.34756 -67.11003,38.76698 -75.35977,34.81664 -30.56588,-14.63635 -11.88447,-58.16225 -3.16725,-78.69124 30.4604,-62.11117 89.7949,-171.70061 122.79535,-205.94478 0,0 -66.30651,50.71003 -137.40781,127.04468 -3.26163,3.5017 -11.82128,2.22259 -15.16094,-0.95955 -4.47007,-4.25925 -8.23455,-11.79073 -4.03011,-16.31239 13.17206,-14.16588 43.16865,-48.52836 72.92594,-111.69184 1.97761,-4.19771 -6.63023,2.43217 -30.32183,30.32184 -35.18824,41.42348 -78.11791,111.11557 -83.67292,115.91386 -2.22871,1.92511 -10.7072,4.27793 -16.57214,-0.61066 -5.33975,-4.45083 -5.39104,-12.13259 -3.38654,-14.74216 30.23716,-39.36457 44.19521,-63.38649 78.29543,-109.09423 5.19822,-6.96767 8.84135,-25.30742 5.7613,-25.43494 -2.60638,-0.10791 -16.95554,7.62647 -23.02924,12.47418 -5.12437,4.08999 -29.75433,20.23696 -38.38207,38.38207 -1.04946,2.20713 -12.21511,1.45421 -14.20137,-1.15146 z"
       id="path7337-0"
       sodipodi:nodetypes="sssssssssssscsssscssssssssssssss"
       inkscape:label="M1 Original path" /><path
       style="display:inline;opacity:0.902655;fill:none;fill-opacity:1;fill-rule:evenodd;stroke:#000000;stroke-width:10;stroke-linecap:butt;stroke-linejoin:round;stroke-dasharray:none;stroke-opacity:1"
       d="m 462.76298,457.54589 c -3.33876,-4.37995 -2.4928,-12.06574 0.76765,-16.5043 14.48562,-19.71976 21.3268,-24.49232 34.73578,-33.77622 10.68014,-7.39456 26.82202,-15.96496 36.27105,-16.88812 6.17669,-0.60346 11.64725,0.4968 15.92856,4.98968 3.96386,4.15975 2.24215,19.64829 4.22203,17.84765 12.51164,-11.37897 22.38681,-19.38963 41.83646,-31.4733 9.58112,-5.95255 13.25501,-5.18452 18.61531,-2.68674 5.34586,2.49106 7.44926,9.25264 5.7573,14.00948 -11.21085,31.51848 -37.21838,66.04005 -32.07915,61.98703 12.26804,-9.6751 122.98425,-99.20438 133.61669,-107.97168 5.50306,-4.53772 14.17591,-5.26362 18.98218,1.46143 3.83799,5.37021 4.44743,18.00051 -1.54328,22.32414 -32.96966,19.6671 -215.66445,279.9062 -178.23441,301.57074 7.29729,4.22368 34.67617,-8.97261 51.93427,-26.70186 15.31137,-15.72939 33.95314,2.31404 14.10353,17.49205 -50.15046,38.34756 -67.11003,38.76698 -75.35977,34.81664 -30.56588,-14.63634 -11.88447,-58.16225 -3.16725,-78.69123 30.4604,-62.11118 89.7949,-171.70062 122.79535,-205.94479 0,0 -66.30651,50.71003 -137.40781,127.04468 -3.26163,3.5017 -11.82128,2.22259 -15.16094,-0.95955 -4.47007,-4.25925 -8.23455,-11.79073 -4.03011,-16.31239 13.17206,-14.16588 43.16865,-48.52836 72.92594,-111.69184 1.97761,-4.19771 -6.63023,2.43217 -30.32183,30.32184 -35.18824,41.42348 -78.11791,111.11557 -83.67292,115.91386 -2.22871,1.92511 -10.7072,4.27793 -16.57214,-0.61066 -5.33975,-4.45083 -5.39104,-12.13259 -3.38654,-14.74216 30.23716,-39.36457 44.19521,-63.38649 78.29543,-109.09423 5.19822,-6.96767 8.84135,-25.30742 5.7613,-25.43494 -2.60638,-0.10791 -16.95554,7.62647 -23.02924,12.47418 -5.12437,4.08999 -29.75433,20.23696 -38.38207,38.38207 -1.04946,2.20713 -12.21511,1.45421 -14.20137,-1.15146 z"
       id="path7337-1-1"
       sodipodi:nodetypes="sssssssssssscsssscssssssssssssss"
       inkscape:label="M1 Original path" /><path
       style="display:inline;fill:none;fill-opacity:1;fill-rule:evenodd;stroke:#000000;stroke-width:10;stroke-linecap:butt;stroke-linejoin:round;stroke-dasharray:none;stroke-opacity:1"
       d="m 426.4265,487.09793 c -5.58428,-1.94829 -12.49424,2.40802 -14.20138,9.01978 -1.59751,6.18713 6.5607,11.35905 12.28228,11.51462 7.1702,0.19495 13.97377,-1.1046 15.92854,-5.94921 3.26159,-8.08333 -4.80896,-11.37527 -14.00944,-14.58519 z"
       id="path7351-54"
       sodipodi:nodetypes="sssss"
       inkscape:label="Dot" /></g><g
     inkscape:groupmode="layer"
     id="layer3"
     inkscape:label="new sig 1"
     style="display:inline;fill:none;fill-opacity:1;stroke:#000000;stroke-width:7.21217;stroke-dasharray:none;stroke-opacity:1"
     transform="matrix(1.1174244,0,0,1.1823854,-272.96205,-313.44681)"><path
       style="display:inline;fill:#fcfcfc;fill-opacity:1;fill-rule:evenodd;stroke:#000000;stroke-width:7.21217;stroke-linejoin:round;stroke-dasharray:none;stroke-opacity:1"
       d="m 466.42272,188.1049 c -74.85252,0.16675 -149.36564,29.4402 -202.3651,81.03376 -51.53503,49.13358 -81.73337,118.85241 -80.78388,189.13123 0.38926,64.16011 26.45922,127.53314 71.11916,174.67373 50.09045,53.10299 122.8372,84.12432 196.50309,87.63421 28.10086,0.26449 56.50669,-0.69492 83.79556,-7.84956 67.72588,-15.85583 129.4104,-56.12594 168.38585,-112.50149 25.77008,-36.63314 41.98837,-79.75986 45.84261,-124.0213 1.514,-27.24683 1.26908,-54.9161 -5.71021,-81.51765 C 728.52129,331.68082 688.85506,274.65709 634.05554,238.1131 585.26355,205.06448 525.82073,187.63015 466.42272,188.1049 Z"
       id="path9422" /><path
       id="path7351-54-7"
       style="display:inline;fill:#000000;fill-opacity:1;fill-rule:evenodd;stroke:#000000;stroke-width:7.21217;stroke-linecap:butt;stroke-linejoin:round;stroke-dasharray:none;stroke-opacity:1"
       inkscape:label="Dot"
       d="m 397.08819,458.46235 c -4.91857,-1.76123 -11.00479,2.17681 -12.50842,8.15375 -1.40707,5.59307 5.77859,10.26841 10.8181,10.40904 6.31543,0.17623 12.30794,-0.99854 14.02968,-5.378 2.87277,-7.30721 -4.23568,-10.28307 -12.33936,-13.18479 z m 32.00477,-26.71461 c -2.94074,-3.95941 -2.19563,-10.90725 0.67614,-14.91965 12.75877,-17.82637 18.78441,-22.14069 30.59489,-30.5332 9.40695,-6.68458 23.62454,-14.43209 31.94714,-15.26661 5.44036,-0.54552 10.25877,0.4491 14.0297,4.51059 3.49133,3.76036 1.97486,17.76177 3.71872,16.13402 11.02011,-10.28643 19.71806,-17.52794 36.84909,-28.4514 8.43895,-5.38102 11.67487,-4.68673 16.39616,-2.42878 4.70858,2.25188 6.56123,8.36425 5.07097,12.66437 -9.87439,28.49224 -32.78154,59.69923 -28.25496,56.03536 10.80555,-8.74615 108.32317,-89.6793 117.68811,-97.60481 4.84703,-4.10203 12.48598,-4.75823 16.71929,1.32111 3.38046,4.85459 3.91725,16.2722 -1.3593,20.1807 -29.03932,17.77876 -189.95487,253.03108 -156.98691,272.6155 6.42737,3.81815 30.54239,-8.1111 45.74314,-24.13808 13.48608,-14.21914 29.90555,2.09185 12.42223,15.81255 -44.17197,34.66563 -59.10978,35.04478 -66.37606,31.47373 -26.92209,-13.23103 -10.46771,-52.57782 -2.78968,-71.13571 26.82919,-56.14759 79.09036,-155.21483 108.1568,-186.17106 0,0 -58.40205,45.84112 -121.02729,114.84652 -2.87281,3.16549 -10.41205,2.00919 -13.35359,-0.86742 -3.93719,-3.8503 -7.2529,-10.65864 -3.54967,-14.74616 11.6018,-12.80575 38.02247,-43.86892 64.23236,-100.96778 1.74186,-3.79467 -5.83983,2.19865 -26.70713,27.4105 -30.99342,37.44621 -68.8054,100.44684 -73.69819,104.78442 -1.96302,1.74027 -9.43078,3.86719 -14.59656,-0.55203 -4.70319,-4.02348 -4.74837,-10.96768 -2.98282,-13.32669 26.63255,-35.58499 38.92665,-57.30046 68.96175,-98.61958 4.57853,-6.29867 7.78736,-22.87753 5.07449,-22.99281 -2.29567,-0.0976 -14.93426,6.89422 -20.2839,11.27647 -4.51349,3.6973 -26.20729,18.29392 -33.80651,34.69683 -0.92435,1.99521 -10.75893,1.31459 -12.50841,-1.0409 z M 250.6679,382.45922 c -2.94074,-3.95942 -2.19563,-10.90727 0.67614,-14.91965 12.75877,-17.82638 18.78441,-22.1407 30.59489,-30.5332 9.40695,-6.68458 23.62454,-14.43209 31.94714,-15.26662 5.44036,-0.54552 10.25877,0.4491 14.0297,4.5106 3.49133,3.76035 1.97486,17.76177 3.71872,16.13401 11.02011,-10.28642 19.71805,-17.52794 36.84909,-28.4514 8.43895,-5.38101 11.67487,-4.68673 16.39616,-2.42877 4.70858,2.25188 6.56123,8.36425 5.07097,12.66435 -9.8744,28.49226 -32.78154,59.69925 -28.25496,56.03538 10.80555,-8.74615 108.32317,-89.6793 117.6881,-97.60481 4.84704,-4.10203 12.48599,-4.75825 16.7193,1.32111 3.38046,4.85458 3.91725,16.27219 -1.3593,20.18069 -29.03932,17.77877 -189.95488,253.03109 -156.98691,272.61551 6.42737,3.81815 30.54239,-8.11111 45.74313,-24.13809 13.48609,-14.21913 29.90556,2.09186 12.42224,15.81256 -44.17197,34.66563 -59.10978,35.04478 -66.37606,31.47373 -26.92209,-13.23105 -10.46771,-52.57782 -2.78968,-71.13572 26.82919,-56.14759 79.09036,-155.21483 108.15679,-186.17105 0,0 -58.40204,45.84112 -121.02728,114.84652 -2.87281,3.16548 -10.41205,2.00919 -13.35359,-0.86742 -3.93719,-3.8503 -7.2529,-10.65865 -3.54968,-14.74616 11.60181,-12.80575 38.02248,-43.86892 64.23237,-100.96778 1.74186,-3.79467 -5.83983,2.19865 -26.70713,27.4105 -30.99342,37.44621 -68.8054,100.44684 -73.69819,104.78442 -1.96302,1.74027 -9.43078,3.86718 -14.59656,-0.55203 -4.70319,-4.02348 -4.74837,-10.96768 -2.98283,-13.32669 26.63256,-35.585 38.92666,-57.30046 68.96176,-98.61958 4.57853,-6.29867 7.78736,-22.87754 5.07449,-22.99281 -2.29568,-0.0976 -14.93426,6.89421 -20.28391,11.27647 -4.51348,3.69729 -26.20728,18.29392 -33.8065,34.69683 -0.92435,1.99521 -10.75893,1.31458 -12.50841,-1.0409 z m 502.40134,68.69022 A 287.35531,272.02313 0 0 1 465.71393,723.17257 287.35531,272.02313 0 0 1 178.35862,451.14944 287.35531,272.02313 0 0 1 465.71393,179.12632 287.35531,272.02313 0 0 1 753.06924,451.14944 Z m -29.74972,1.38784 A 257.60559,245.65353 0 0 1 465.71393,698.19082 257.60559,245.65353 0 0 1 208.10834,452.53728 257.60559,245.65353 0 0 1 465.71393,206.88376 257.60559,245.65353 0 0 1 723.31952,452.53728 Z" /><path
       id="path7109"
       style="display:inline;fill:url(#linearGradient7125);fill-opacity:1;fill-rule:evenodd;stroke:#000000;stroke-width:7.21217;stroke-linecap:butt;stroke-linejoin:round;stroke-dasharray:none;stroke-opacity:1"
       inkscape:label="Dot"
       d="m 401.08819,462.46235 c -4.91857,-1.76123 -11.00479,2.17681 -12.50842,8.15375 -1.40707,5.59307 5.77859,10.26841 10.8181,10.40904 6.31543,0.17623 12.30794,-0.99854 14.02968,-5.378 2.87277,-7.30721 -4.23568,-10.28307 -12.33936,-13.18479 z m 32.00477,-26.71461 c -2.94074,-3.95941 -2.19563,-10.90725 0.67614,-14.91965 12.75877,-17.82637 18.78441,-22.14069 30.59489,-30.5332 9.40695,-6.68458 23.62454,-14.43209 31.94714,-15.26661 5.44036,-0.54552 10.25877,0.4491 14.0297,4.51059 3.49133,3.76036 1.97486,17.76177 3.71872,16.13402 11.02011,-10.28643 19.71806,-17.52794 36.84909,-28.4514 8.43895,-5.38102 11.67487,-4.68673 16.39616,-2.42878 4.70858,2.25188 6.56123,8.36425 5.07097,12.66437 -9.87439,28.49224 -32.78154,59.69923 -28.25496,56.03536 10.80555,-8.74615 108.32317,-89.6793 117.68811,-97.60481 4.84703,-4.10203 12.48598,-4.75823 16.71929,1.32111 3.38046,4.85459 3.91725,16.2722 -1.3593,20.1807 -29.03932,17.77876 -189.95487,253.03108 -156.98691,272.6155 6.42737,3.81815 30.54239,-8.1111 45.74314,-24.13808 13.48608,-14.21914 29.90555,2.09185 12.42223,15.81255 -44.17197,34.66563 -59.10978,35.04478 -66.37606,31.47373 -26.92209,-13.23103 -10.46771,-52.57782 -2.78968,-71.13571 26.82919,-56.14759 79.09036,-155.21483 108.1568,-186.17106 0,0 -58.40205,45.84112 -121.02729,114.84652 -2.87281,3.16549 -10.41205,2.00919 -13.35359,-0.86742 -3.93719,-3.8503 -7.2529,-10.65864 -3.54967,-14.74616 11.6018,-12.80575 38.02247,-43.86892 64.23236,-100.96778 1.74186,-3.79467 -5.83983,2.19865 -26.70713,27.4105 -30.99342,37.44621 -68.8054,100.44684 -73.69819,104.78442 -1.96302,1.74027 -9.43078,3.86719 -14.59656,-0.55203 -4.70319,-4.02348 -4.74837,-10.96768 -2.98282,-13.32669 26.63255,-35.58499 38.92665,-57.30046 68.96175,-98.61958 4.57853,-6.29867 7.78736,-22.87753 5.07449,-22.99281 -2.29567,-0.0976 -14.93426,6.89422 -20.2839,11.27647 -4.51349,3.6973 -26.20729,18.29392 -33.80651,34.69683 -0.92435,1.99521 -10.75893,1.31459 -12.50841,-1.0409 z M 254.6679,386.45922 c -2.94074,-3.95942 -2.19563,-10.90727 0.67614,-14.91965 12.75877,-17.82638 18.78441,-22.1407 30.59489,-30.5332 9.40695,-6.68458 23.62454,-14.43209 31.94714,-15.26662 5.44036,-0.54552 10.25877,0.4491 14.0297,4.5106 3.49133,3.76035 1.97486,17.76177 3.71872,16.13401 11.02011,-10.28642 19.71805,-17.52794 36.84909,-28.4514 8.43895,-5.38101 11.67487,-4.68673 16.39616,-2.42877 4.70858,2.25188 6.56123,8.36425 5.07097,12.66435 -9.8744,28.49226 -32.78154,59.69925 -28.25496,56.03538 10.80555,-8.74615 108.32317,-89.6793 117.6881,-97.60481 4.84704,-4.10203 12.48599,-4.75825 16.7193,1.32111 3.38046,4.85458 3.91725,16.27219 -1.3593,20.18069 -29.03932,17.77877 -189.95488,253.03109 -156.98691,272.61551 6.42737,3.81815 30.54239,-8.11111 45.74313,-24.13809 13.48609,-14.21913 29.90556,2.09186 12.42224,15.81256 -44.17197,34.66563 -59.10978,35.04478 -66.37606,31.47373 -26.92209,-13.23105 -10.46771,-52.57782 -2.78968,-71.13572 26.82919,-56.14759 79.09036,-155.21483 108.15679,-186.17105 0,0 -58.40204,45.84112 -121.02728,114.84652 -2.87281,3.16548 -10.41205,2.00919 -13.35359,-0.86742 -3.93719,-3.8503 -7.2529,-10.65865 -3.54968,-14.74616 11.60181,-12.80575 38.02248,-43.86892 64.23237,-100.96778 1.74186,-3.79467 -5.83983,2.19865 -26.70713,27.4105 -30.99342,37.44621 -68.8054,100.44684 -73.69819,104.78442 -1.96302,1.74027 -9.43078,3.86718 -14.59656,-0.55203 -4.70319,-4.02348 -4.74837,-10.96768 -2.98283,-13.32669 26.63256,-35.585 38.92666,-57.30046 68.96176,-98.61958 4.57853,-6.29867 7.78736,-22.87754 5.07449,-22.99281 -2.29568,-0.0976 -14.93426,6.89421 -20.28391,11.27647 -4.51348,3.69729 -26.20728,18.29392 -33.8065,34.69683 -0.92435,1.99521 -10.75893,1.31458 -12.50841,-1.0409 z m 502.40134,68.69022 A 287.35531,272.02313 0 0 1 469.71393,727.17257 287.35531,272.02313 0 0 1 182.35862,455.14944 287.35531,272.02313 0 0 1 469.71393,183.12632 287.35531,272.02313 0 0 1 757.06924,455.14944 Z m -29.74972,1.38784 A 257.60559,245.65353 0 0 1 469.71393,702.19082 257.60559,245.65353 0 0 1 212.10834,456.53728 257.60559,245.65353 0 0 1 469.71393,210.88376 257.60559,245.65353 0 0 1 727.31952,456.53728 Z" /><g
       inkscape:groupmode="layer"
       id="layer4"
       inkscape:label="bg"
       style="fill:#ffffff;stroke-width:7.21217;stroke-dasharray:none" /></g></svg>
